<?xml version="1.0" standalone="no"?>
<!DOCTYPE svg PUBLIC "-//W3C//DTD SVG 20010904//EN"
 "http://www.w3.org/TR/2001/REC-SVG-20010904/DTD/svg10.dtd">
<svg version="1.0" xmlns="http://www.w3.org/2000/svg"
 width="308.000000pt" height="305.000000pt" viewBox="0 0 308.000000 305.000000"
 preserveAspectRatio="xMidYMid meet">

<g transform="translate(0.000000,305.000000) scale(0.100000,-0.100000)"
fill="#000000" stroke="none">
<path d="M190 1526 l0 -1296 1380 0 1380 0 0 1290 0 1290 -1349 0 c-742 0
-1363 3 -1380 6 l-31 7 0 -1297z m670 1104 l0 -130 -310 0 -310 0 0 130 0 130
310 0 310 0 0 -130z m2010 0 l0 -130 -965 0 -965 0 0 130 0 130 965 0 965 0 0
-130z m0 -1270 l0 -1050 -1315 0 -1315 0 0 1050 0 1050 1315 0 1315 0 0 -1050z"/>
<path d="M330 2630 l0 -40 40 0 40 0 0 40 0 40 -40 0 -40 0 0 -40z"/>
<path d="M510 2630 l0 -40 40 0 40 0 0 40 0 40 -40 0 -40 0 0 -40z"/>
<path d="M680 2630 l0 -40 40 0 40 0 0 40 0 40 -40 0 -40 0 0 -40z"/>
<path d="M1030 2630 l0 -40 875 0 c827 0 875 1 875 18 0 9 -3 27 -6 40 l-6 22
-869 0 -869 0 0 -40z"/>
<path d="M420 2015 l0 -215 1135 0 1135 0 0 215 0 215 -1135 0 -1135 0 0 -215z
m2180 0 l0 -135 -1050 0 -1050 0 0 135 0 135 1050 0 1050 0 0 -135z"/>
<path d="M590 2018 l0 -43 260 3 260 3 0 39 0 40 -260 0 -260 0 0 -42z"/>
<path d="M420 1230 l0 -480 1135 0 1135 0 0 480 0 480 -1135 0 -1135 0 0 -480z
m2180 5 l0 -395 -1050 0 -1050 0 0 395 0 395 1050 0 1050 0 0 -395z"/>
<path d="M590 1493 l0 -43 960 0 960 0 0 43 0 42 -960 0 -960 0 0 -42z"/>
<path d="M590 1318 l0 -43 960 0 960 0 0 43 0 42 -960 0 -960 0 0 -42z"/>
<path d="M590 1143 l0 -43 525 0 525 0 0 43 0 42 -525 0 -525 0 0 -42z"/>
<path d="M2170 620 l0 -40 260 0 260 0 0 40 0 40 -260 0 -260 0 0 -40z"/>
</g>
</svg>
