<?xml version="1.0" standalone="no"?>
<!DOCTYPE svg PUBLIC "-//W3C//DTD SVG 20010904//EN"
 "http://www.w3.org/TR/2001/REC-SVG-20010904/DTD/svg10.dtd">
<svg version="1.0" xmlns="http://www.w3.org/2000/svg"
 width="96.000000pt" height="96.000000pt" viewBox="0 0 96.000000 96.000000"
 preserveAspectRatio="xMidYMid meet">

<g transform="translate(0.000000,96.000000) scale(0.100000,-0.100000)"
fill="#000000" stroke="none">
<path d="M305 851 c-130 -60 -165 -225 -70 -329 l33 -36 -44 -28 c-54 -34
-100 -96 -119 -161 -22 -75 -20 -87 15 -87 21 0 30 5 30 16 0 47 28 102 75
149 53 54 102 75 171 75 40 0 136 -39 149 -60 5 -8 -19 -39 -63 -84 -68 -68
-71 -74 -85 -146 -9 -41 -15 -76 -14 -77 1 0 36 6 79 14 l76 15 166 167 c147
148 166 171 166 200 0 44 -46 91 -90 91 -26 0 -46 -13 -105 -71 l-73 -70 -45
28 -45 29 33 36 c71 77 72 195 2 275 -61 69 -161 92 -242 54z m155 -61 c45
-23 80 -80 80 -130 0 -76 -74 -150 -150 -150 -50 0 -107 35 -130 80 -25 50
-25 90 0 140 37 73 124 99 200 60z m348 -305 c4 -27 -281 -311 -322 -321 -28
-7 -29 -6 -22 22 10 41 294 326 321 322 11 -2 21 -12 23 -23z"/>
</g>
</svg>
